<svg width="24.000000" height="24.000000" viewBox="0 0 24 24" fill="none" xmlns="http://www.w3.org/2000/svg" xmlns:xlink="http://www.w3.org/1999/xlink">
	<desc>
			Created with Pixso.
	</desc>
	<defs>
		<clipPath id="clip4_22">
			<rect id="bookmark" width="24.000000" height="24.000000" fill="white" fill-opacity="0"/>
		</clipPath>
	</defs>
	<rect id="bookmark" width="24.000000" height="24.000000" fill="#FFFFFF" fill-opacity="0"/>
	<g clip-path="url(#clip4_22)">
		<path id="Vector" d="M6.19 21.85C6.07 21.93 5.94 21.98 5.8 21.99C5.67 22 5.53 21.97 5.4 21.91C5.28 21.84 5.18 21.75 5.11 21.63C5.03 21.51 5 21.38 5 21.24L5 6.25C5 5.38 5.34 4.56 5.95 3.95C6.56 3.34 7.39 3 8.25 3L15.75 3C16.61 3 17.43 3.34 18.04 3.95C18.65 4.56 18.99 5.38 19 6.24L19 21.24C19 21.38 18.96 21.51 18.89 21.63C18.81 21.75 18.71 21.84 18.59 21.91C18.46 21.97 18.33 22 18.19 21.99C18.05 21.98 17.92 21.93 17.81 21.85L12 17.67L6.18 21.85L6.19 21.85ZM17.5 6.24C17.5 5.78 17.31 5.33 16.98 5.01C16.65 4.68 16.21 4.49 15.75 4.49L8.25 4.49C7.78 4.49 7.34 4.68 7.01 5.01C6.68 5.33 6.5 5.78 6.5 6.24L6.5 19.78L11.56 16.14C11.69 16.04 11.84 15.99 12 15.99C12.16 15.99 12.31 16.04 12.44 16.14L17.5 19.78L17.5 6.25L17.5 6.24Z" fill="#536471" fill-opacity="1.000000" fill-rule="nonzero"/>
	</g>
</svg>
