<svg width="24.000000" height="24.000000" viewBox="0 0 24 24" fill="none" xmlns="http://www.w3.org/2000/svg" xmlns:xlink="http://www.w3.org/1999/xlink">
	<desc>
			Created with Pixso.
	</desc>
	<defs>
		<clipPath id="clip4_20">
			<rect id="comment" width="24.000000" height="24.000000" fill="white" fill-opacity="0"/>
		</clipPath>
	</defs>
	<rect id="comment" width="24.000000" height="24.000000" fill="#FFFFFF" fill-opacity="0"/>
	<g clip-path="url(#clip4_20)">
		<path id="Vector" d="M5.25 18C4.38 18 3.56 17.65 2.95 17.04C2.34 16.43 2 15.61 2 14.75L2 6.25C2 5.38 2.34 4.56 2.95 3.95C3.56 3.34 4.38 3 5.25 3L18.75 3C19.17 3 19.59 3.08 19.99 3.24C20.38 3.41 20.74 3.65 21.04 3.95C21.34 4.25 21.58 4.61 21.75 5C21.91 5.4 22 5.82 22 6.25L22 14.75C22 15.17 21.91 15.59 21.75 15.99C21.58 16.38 21.34 16.74 21.04 17.04C20.74 17.34 20.38 17.58 19.99 17.75C19.59 17.91 19.17 18 18.75 18L13.01 18L8 21.75C7.81 21.88 7.59 21.97 7.36 21.99C7.13 22.01 6.89 21.97 6.69 21.86C6.48 21.76 6.3 21.6 6.18 21.4C6.06 21.2 6 20.98 6 20.75L6 18L5.25 18L5.25 18ZM12.51 16.5L18.75 16.5C19.21 16.5 19.65 16.31 19.98 15.98C20.31 15.65 20.5 15.21 20.5 14.75L20.5 6.25C20.5 5.78 20.31 5.34 19.98 5.01C19.65 4.68 19.21 4.5 18.75 4.5L5.25 4.5C4.78 4.5 4.34 4.68 4.01 5.01C3.68 5.34 3.5 5.78 3.5 6.25L3.5 14.75C3.5 15.71 4.28 16.5 5.25 16.5L7.49 16.5L7.49 20.25L12.51 16.5Z" fill="#536471" fill-opacity="1.000000" fill-rule="nonzero"/>
	</g>
</svg>
