<svg width="24.000000" height="24.000000" viewBox="0 0 24 24" fill="none" xmlns="http://www.w3.org/2000/svg" xmlns:xlink="http://www.w3.org/1999/xlink">
	<desc>
			Created with Pixso.
	</desc>
	<defs>
		<clipPath id="clip4_17">
			<rect id="heart" width="24.000000" height="24.000000" fill="white" fill-opacity="0"/>
		</clipPath>
	</defs>
	<rect id="heart" width="24.000000" height="24.000000" fill="#FFFFFF" fill-opacity="0"/>
	<g clip-path="url(#clip4_17)">
		<path id="Vector" d="M12.82 5.57L12 6.4L11.17 5.57C10.16 4.57 8.8 4 7.37 4C5.94 4 4.58 4.57 3.57 5.57C2.56 6.58 2 7.95 2 9.37C2 10.8 2.56 12.17 3.57 13.18L11.47 21.07C11.61 21.21 11.8 21.29 12 21.29C12.19 21.29 12.38 21.21 12.53 21.07L20.43 13.17C21.43 12.16 22 10.8 22 9.37C22 7.95 21.43 6.58 20.43 5.57C19.93 5.07 19.33 4.68 18.68 4.41C18.03 4.14 17.33 4 16.62 4C15.91 4 15.21 4.14 14.56 4.41C13.91 4.68 13.31 5.07 12.82 5.57L12.82 5.57ZM19.36 12.12L12 19.48L4.63 12.12C4.27 11.76 3.98 11.33 3.78 10.86C3.58 10.39 3.48 9.88 3.48 9.37C3.48 8.86 3.58 8.35 3.77 7.88C3.97 7.41 4.25 6.98 4.62 6.62C4.98 6.26 5.41 5.97 5.88 5.78C6.35 5.58 6.86 5.48 7.37 5.49C7.88 5.49 8.38 5.59 8.85 5.79C9.32 5.98 9.75 6.27 10.11 6.63L11.47 7.99C11.54 8.06 11.62 8.12 11.72 8.16C11.81 8.19 11.91 8.21 12.01 8.21C12.11 8.21 12.21 8.19 12.3 8.15C12.39 8.11 12.47 8.05 12.54 7.98L13.88 6.63C14.61 5.95 15.58 5.58 16.59 5.6C17.59 5.61 18.55 6.02 19.26 6.73C19.97 7.44 20.38 8.4 20.4 9.4C20.42 10.41 20.05 11.38 19.36 12.12L19.36 12.12Z" fill="#536471" fill-opacity="1.000000" fill-rule="nonzero"/>
	</g>
</svg>
